<svg xmlns="http://www.w3.org/2000/svg" xmlns:xlink="http://www.w3.org/1999/xlink" width="500" zoomAndPan="magnify" viewBox="0 0 375 374.999991" height="500" preserveAspectRatio="xMidYMid meet" version="1.0"><path fill="rgb(100%, 100%, 100%)" d="M 187.5 4.328125 C 83.945312 4.328125 0 88.160156 0 191.488281 C 0 274.195312 53.75 344.394531 128.230469 369.1875 C 137.582031 370.875 144.230469 361.296875 144.230469 354.085938 C 144.230469 349.691406 144.34375 344.394531 144.230469 328.847656 C 92.058594 340.113281 75.722656 303.605469 75.722656 303.605469 C 67.15625 281.972656 56.789062 275.773438 56.789062 275.773438 C 39.777344 264.167969 58.03125 264.503906 58.03125 264.503906 C 76.847656 265.746094 86.539062 281.972656 86.539062 281.972656 C 100.960938 307.210938 133.527344 304.734375 144.230469 300 C 144.230469 288.507812 145.46875 280.167969 148.625 274.871094 C 89.695312 264.503906 57.578125 230.476562 57.691406 183.375 C 57.804688 155.542969 67.382812 133.910156 82.933594 117.910156 C 76.171875 109.34375 71.550781 80.046875 85.410156 62.019531 C 120.230469 62.019531 140.964844 87.148438 140.964844 87.148438 C 140.964844 87.148438 157.300781 80.046875 187.386719 80.046875 C 217.585938 80.046875 233.8125 86.808594 233.8125 86.808594 C 233.8125 86.808594 254.65625 62.019531 289.476562 62.019531 C 303.335938 80.046875 298.714844 109.34375 293.308594 117.34375 C 308.179688 133.007812 317.308594 154.640625 317.308594 183.375 C 317.308594 230.476562 285.304688 264.503906 226.488281 274.757812 C 230.207031 280.394531 230.769531 288.28125 230.769531 300 C 230.769531 325.015625 230.769531 347.890625 230.769531 354.085938 C 230.769531 361.296875 237.304688 370.988281 246.882812 369.1875 C 321.363281 344.285156 375 274.195312 375 191.488281 C 375 88.160156 291.054688 4.328125 187.5 4.328125 Z M 187.5 4.328125 " fill-opacity="1" fill-rule="nonzero"/></svg>