<svg xmlns="http://www.w3.org/2000/svg" xmlns:xlink="http://www.w3.org/1999/xlink" width="500" zoomAndPan="magnify" viewBox="0 0 375 374.999991" height="500" preserveAspectRatio="xMidYMid meet" version="1.0"><path fill="rgb(95.689392%, 61.959839%, 4.309082%)" d="M 50.707031 0 C 22.875 0 0 22.875 0 50.707031 L 0 324.40625 C 0 352.125 22.875 375 50.707031 375 L 324.40625 375 C 352.125 375 375 352.125 375 324.40625 L 375 50.707031 C 375 22.875 352.125 0 324.40625 0 Z M 50.707031 28.847656 L 324.40625 28.847656 C 336.574219 28.847656 346.152344 38.425781 346.152344 50.707031 L 346.152344 324.40625 C 346.152344 336.574219 336.574219 346.152344 324.40625 346.152344 L 50.707031 346.152344 C 38.425781 346.152344 28.847656 336.574219 28.847656 324.40625 L 28.847656 50.707031 C 28.847656 38.425781 38.425781 28.847656 50.707031 28.847656 Z M 86.539062 57.691406 C 70.652344 57.691406 57.691406 70.652344 57.691406 86.539062 C 57.691406 102.425781 70.652344 115.382812 86.539062 115.382812 C 102.425781 115.382812 115.382812 102.425781 115.382812 86.539062 C 115.382812 70.652344 102.425781 57.691406 86.539062 57.691406 Z M 57.691406 144.230469 L 57.691406 317.308594 L 115.382812 317.308594 L 115.382812 144.230469 Z M 144.230469 144.230469 L 144.230469 317.308594 L 201.921875 317.308594 L 201.921875 240.007812 C 201.921875 216.007812 204.175781 194.484375 233.023438 194.484375 C 261.417969 194.484375 259.617188 220.289062 259.617188 241.585938 L 259.617188 317.308594 L 317.308594 317.308594 L 317.308594 231.894531 C 317.308594 182.316406 306.941406 144.230469 250.714844 144.230469 C 223.671875 144.230469 210.035156 155.046875 202.597656 169.472656 L 201.921875 169.472656 L 201.921875 144.230469 Z M 144.230469 144.230469 " fill-opacity="1" fill-rule="nonzero"/></svg>