<svg xmlns="http://www.w3.org/2000/svg" xmlns:xlink="http://www.w3.org/1999/xlink" width="500" zoomAndPan="magnify" viewBox="0 0 375 374.999991" height="500" preserveAspectRatio="xMidYMid meet" version="1.0"><path fill="rgb(95.689392%, 61.959839%, 4.309082%)" d="M 108.847656 0 C 48.902344 0 0 48.902344 0 108.847656 L 0 266.261719 C 0 326.097656 48.902344 375 108.847656 375 L 266.261719 375 C 326.097656 375 375 326.097656 375 266.152344 L 375 108.847656 C 375 48.902344 326.097656 0 266.152344 0 Z M 108.847656 28.847656 L 266.152344 28.847656 C 310.546875 28.847656 346.152344 64.453125 346.152344 108.847656 L 346.152344 266.152344 C 346.152344 310.546875 310.546875 346.152344 266.261719 346.152344 L 108.847656 346.152344 C 64.453125 346.152344 28.847656 310.546875 28.847656 266.261719 L 28.847656 108.847656 C 28.847656 64.453125 64.453125 28.847656 108.847656 28.847656 Z M 302.882812 57.691406 C 294.882812 57.691406 288.460938 64.113281 288.460938 72.117188 C 288.460938 80.117188 294.882812 86.539062 302.882812 86.539062 C 310.886719 86.539062 317.308594 80.117188 317.308594 72.117188 C 317.308594 64.113281 310.886719 57.691406 302.882812 57.691406 Z M 187.5 86.539062 C 131.949219 86.539062 86.539062 131.949219 86.539062 187.5 C 86.539062 243.050781 131.949219 288.460938 187.5 288.460938 C 243.050781 288.460938 288.460938 243.050781 288.460938 187.5 C 288.460938 131.949219 243.050781 86.539062 187.5 86.539062 Z M 187.5 115.382812 C 227.5 115.382812 259.617188 147.5 259.617188 187.5 C 259.617188 227.5 227.5 259.617188 187.5 259.617188 C 147.5 259.617188 115.382812 227.5 115.382812 187.5 C 115.382812 147.5 147.5 115.382812 187.5 115.382812 Z M 187.5 115.382812 " fill-opacity="1" fill-rule="nonzero"/></svg>