<svg xmlns="http://www.w3.org/2000/svg" xmlns:xlink="http://www.w3.org/1999/xlink" width="500" zoomAndPan="magnify" viewBox="0 0 375 374.999991" height="500" preserveAspectRatio="xMidYMid meet" version="1.0"><defs><clipPath id="id1"><path d="M 0 37.5 L 375 37.5 L 375 322.5 L 0 322.5 Z M 0 37.5 " clip-rule="nonzero"/></clipPath></defs><g clip-path="url(#id1)"><path fill="rgb(95.689392%, 61.959839%, 4.309082%)" d="M 200.53125 178.445312 C 193.105469 185.023438 181.90625 185.023438 174.484375 178.445312 L 46.984375 65.382812 L 328.03125 65.382812 Z M 250.265625 189.019531 L 231.277344 209.265625 L 322.339844 294.671875 L 51.640625 294.671875 L 138.070312 208.914062 L 118.527344 189.207031 L 27.773438 279.253906 L 27.773438 85.445312 L 156.0625 199.210938 C 164.734375 206.902344 175.902344 211.136719 187.507812 211.136719 C 199.113281 211.136719 210.277344 206.902344 218.949219 199.210938 L 347.246094 85.441406 L 347.246094 279.976562 Z M 333.554688 37.625 L 41.460938 37.625 C 18.605469 37.625 0.015625 56.222656 0.015625 79.078125 L 0.015625 280.984375 C 0.015625 303.839844 18.605469 322.433594 41.460938 322.433594 L 333.554688 322.433594 C 356.410156 322.433594 375.003906 303.839844 375.003906 280.984375 L 375.003906 79.078125 C 375.003906 56.222656 356.410156 37.625 333.554688 37.625 " fill-opacity="1" fill-rule="nonzero"/></g></svg>